<?xml version="1.0" encoding="UTF-8" standalone="no"?>
<!DOCTYPE svg PUBLIC "-//W3C//DTD SVG 1.1//EN"
 "http://www.w3.org/Graphics/SVG/1.1/DTD/svg11.dtd">
<!-- Generated by graphviz version 2.38.0 (20140413.2041)
 -->
<!-- Title: modelswarddemo Pages: 1 -->
<svg width="633px" height="250px"
 viewBox="0.00 0.00 632.50 250.00" xmlns="http://www.w3.org/2000/svg" xmlns:xlink="http://www.w3.org/1999/xlink">
<g id="graph0" class="graph" transform="scale(1.0 1.0) rotate(0) translate(4 246)">
<title>modelswarddemo</title>
<polygon fill="white" stroke="none" points="-4,4 -4,-246 628.5,-246 628.5,4 -4,4"/>
<!-- uKSShop -->
<g id="node1" class="node"><title>uKSShop</title>
<polygon fill="none" stroke="black" points="250,-221 250,-238 336,-238 336,-221 250,-221"/>
<text text-anchor="start" x="261" y="-228" font-family="Times New Roman,serif" text-decoration="underline" font-size="10.00">uKSShop :Shop</text>
<polygon fill="none" stroke="black" points="250,-204 250,-221 336,-221 336,-204 250,-204"/>
<text text-anchor="start" x="253" y="-210" font-family="Times New Roman,serif" font-size="10.00">name = &quot;UKSShop&quot;</text>
</g>
<!-- alice -->
<g id="node2" class="node"><title>alice</title>
<polygon fill="none" stroke="black" points="8,-143 8,-160 122,-160 122,-143 8,-143"/>
<text text-anchor="start" x="34.5" y="-150" font-family="Times New Roman,serif" text-decoration="underline" font-size="10.00">alice :Customer</text>
<polygon fill="none" stroke="black" points="8,-104 8,-143 122,-143 122,-104 8,-104"/>
<text text-anchor="start" x="11" y="-132" font-family="Times New Roman,serif" font-size="10.00">address = &quot;Wonderland 1&quot;</text>
<text text-anchor="start" x="11" y="-121" font-family="Times New Roman,serif" font-size="10.00">customerId = &quot;alice1&quot;</text>
<text text-anchor="start" x="11" y="-110" font-family="Times New Roman,serif" font-size="10.00">name = &quot;Alice&quot;</text>
</g>
<!-- uKSShop&#45;&gt;alice -->
<g id="edge1" class="edge"><title>uKSShop&#45;&gt;alice</title>
<path fill="none" stroke="black" d="M241.787,-202.071C211.715,-191.37 173.047,-177.313 139,-164 136.146,-162.884 133.236,-161.731 130.301,-160.555"/>
<text text-anchor="middle" x="151.301" y="-163.555" font-family="Times New Roman,serif" font-size="10.00">customers</text>
<text text-anchor="middle" x="231.287" y="-205.071" font-family="Times New Roman,serif" font-size="10.00">shop</text>
</g>
<!-- bob -->
<g id="node3" class="node"><title>bob</title>
<polygon fill="none" stroke="black" points="156,-143 156,-160 270,-160 270,-143 156,-143"/>
<text text-anchor="start" x="183.5" y="-150" font-family="Times New Roman,serif" text-decoration="underline" font-size="10.00">bob :Customer</text>
<polygon fill="none" stroke="black" points="156,-104 156,-143 270,-143 270,-104 156,-104"/>
<text text-anchor="start" x="159" y="-132" font-family="Times New Roman,serif" font-size="10.00">address = &quot;Wonderland 1&quot;</text>
<text text-anchor="start" x="159" y="-121" font-family="Times New Roman,serif" font-size="10.00">customerId = &quot;bob2&quot;</text>
<text text-anchor="start" x="159" y="-110" font-family="Times New Roman,serif" font-size="10.00">name = &quot;Bob&quot;</text>
</g>
<!-- uKSShop&#45;&gt;bob -->
<g id="edge2" class="edge"><title>uKSShop&#45;&gt;bob</title>
<path fill="none" stroke="black" d="M274.445,-199.822C264.752,-189.28 252.674,-176.145 241.797,-164.317"/>
<text text-anchor="middle" x="220.797" y="-167.317" font-family="Times New Roman,serif" font-size="10.00">customers</text>
<text text-anchor="middle" x="263.945" y="-191.822" font-family="Times New Roman,serif" font-size="10.00">shop</text>
</g>
<!-- p -->
<g id="node4" class="node"><title>p</title>
<polygon fill="none" stroke="black" points="305,-143 305,-160 444,-160 444,-143 305,-143"/>
<text text-anchor="start" x="353.5" y="-150" font-family="Times New Roman,serif" text-decoration="underline" font-size="10.00">p :Product</text>
<polygon fill="none" stroke="black" points="305,-104 305,-143 444,-143 444,-104 305,-104"/>
<text text-anchor="start" x="308" y="-132" font-family="Times New Roman,serif" font-size="10.00">description = &quot;Great UKS Tshirt&quot;</text>
<text text-anchor="start" x="308" y="-121" font-family="Times New Roman,serif" font-size="10.00">price = 13.37</text>
<text text-anchor="start" x="308" y="-110" font-family="Times New Roman,serif" font-size="10.00">productId = &quot;t42&quot;</text>
</g>
<!-- uKSShop&#45;&gt;p -->
<g id="edge3" class="edge"><title>uKSShop&#45;&gt;p</title>
<path fill="none" stroke="black" d="M311.787,-199.822C321.601,-189.28 333.83,-176.145 344.843,-164.317"/>
<text text-anchor="middle" x="326.343" y="-167.317" font-family="Times New Roman,serif" font-size="10.00">products</text>
<text text-anchor="middle" x="301.287" y="-191.822" font-family="Times New Roman,serif" font-size="10.00">shop</text>
</g>
<!-- p1 -->
<g id="node5" class="node"><title>p1</title>
<polygon fill="none" stroke="black" points="478,-143 478,-160 617,-160 617,-143 478,-143"/>
<text text-anchor="start" x="524.5" y="-150" font-family="Times New Roman,serif" text-decoration="underline" font-size="10.00">p1 :Product</text>
<polygon fill="none" stroke="black" points="478,-104 478,-143 617,-143 617,-104 478,-104"/>
<text text-anchor="start" x="481" y="-132" font-family="Times New Roman,serif" font-size="10.00">description = &quot;UKS Coffee Mug&quot;</text>
<text text-anchor="start" x="481" y="-121" font-family="Times New Roman,serif" font-size="10.00">price = 4.2</text>
<text text-anchor="start" x="481" y="-110" font-family="Times New Roman,serif" font-size="10.00">productId = &quot;m43&quot;</text>
</g>
<!-- uKSShop&#45;&gt;p1 -->
<g id="edge4" class="edge"><title>uKSShop&#45;&gt;p1</title>
<path fill="none" stroke="black" d="M344.206,-203.288C377.542,-192.32 421.932,-177.55 461,-164 463.699,-163.064 466.444,-162.106 469.214,-161.134"/>
<text text-anchor="middle" x="450.714" y="-164.134" font-family="Times New Roman,serif" font-size="10.00">products</text>
<text text-anchor="middle" x="354.706" y="-206.288" font-family="Times New Roman,serif" font-size="10.00">shop</text>
</g>
<!-- o -->
<g id="node6" class="node"><title>o</title>
<polygon fill="none" stroke="black" points="333,-43 333,-60 416,-60 416,-43 333,-43"/>
<text text-anchor="start" x="358" y="-50" font-family="Times New Roman,serif" text-decoration="underline" font-size="10.00">o :Order</text>
<polygon fill="none" stroke="black" points="333,-4 333,-43 416,-43 416,-4 333,-4"/>
<text text-anchor="start" x="336" y="-32" font-family="Times New Roman,serif" font-size="10.00">date = &quot;2020.09.02&quot;</text>
<text text-anchor="start" x="336" y="-21" font-family="Times New Roman,serif" font-size="10.00">orderId = &quot;o44&quot;</text>
<text text-anchor="start" x="336" y="-10" font-family="Times New Roman,serif" font-size="10.00">state = &quot;initial&quot;</text>
</g>
<!-- alice&#45;&gt;o -->
<g id="edge5" class="edge"><title>alice&#45;&gt;o</title>
<path fill="none" stroke="black" d="M130.206,-103.189C133.167,-102.082 136.108,-101.014 139,-100 202.055,-77.8919 276.473,-57.6268 324.406,-45.3051"/>
<text text-anchor="middle" x="311.406" y="-48.3051" font-family="Times New Roman,serif" font-size="10.00">orders</text>
<text text-anchor="middle" x="148.706" y="-95.1889" font-family="Times New Roman,serif" font-size="10.00">customer</text>
</g>
<!-- p&#45;&gt;o -->
<g id="edge6" class="edge"><title>p&#45;&gt;o</title>
<path fill="none" stroke="black" d="M374,-99.9922C374,-88.5527 374,-75.5938 374,-64.1425"/>
<text text-anchor="middle" x="361" y="-67.1425" font-family="Times New Roman,serif" font-size="10.00">orders</text>
<text text-anchor="middle" x="355.5" y="-91.9922" font-family="Times New Roman,serif" font-size="10.00">products</text>
</g>
<!-- p1&#45;&gt;o -->
<g id="edge7" class="edge"><title>p1&#45;&gt;o</title>
<path fill="none" stroke="black" d="M492.262,-99.9922C470.286,-87.5433 445.133,-73.2952 423.691,-61.1485"/>
<text text-anchor="middle" x="436.691" y="-64.1485" font-family="Times New Roman,serif" font-size="10.00">orders</text>
<text text-anchor="middle" x="473.762" y="-91.9922" font-family="Times New Roman,serif" font-size="10.00">products</text>
</g>
</g>
</svg>
